<?xml version="1.0" encoding="UTF-8"?>
<svg width="92px" height="32px" viewBox="0 0 92 32" version="1.1" xmlns="http://www.w3.org/2000/svg" xmlns:xlink="http://www.w3.org/1999/xlink">
    <title>bbb-acredited-new</title>
    <g id="4th-round" stroke="none" stroke-width="1" fill="none" fill-rule="evenodd">
        <g id="trial-everyone" transform="translate(-348.000000, -637.000000)">
            <g id="bbb-acredited-new" transform="translate(348.000000, 637.000000)">
                <path d="M29.5124636,31.6991687 L4.29199837,31.6991687 C1.91534213,31.4897055 0.402867637,29.8631031 0.44416814,27.752933 L0.44416814,4.19485665 C0.48284043,2.04478285 1.99919467,0.4192992 4.29199837,0.248620931 L29.5124636,0.248620931 L29.5124636,31.6991687 Z" id="Fill-1" fill="#FFFFFF"></path>
                <path d="M85.3406067,27.7983063 L85.3406067,4.20169373 C85.3406067,2.07673063 83.5802041,0.328179629 81.440838,0.328179629 L29.4109645,0.328179629 L29.4109645,31.6718204 L81.440838,31.6718204 C83.5802041,31.6718204 85.3406067,29.9232569 85.3406067,27.7983063" id="Fill-2" fill="#015A75"></path>
                <path d="M81.440838,32 L29.081812,32 L29.081812,0 L81.440838,0 C83.7604244,0.00273483024 85.6682574,1.89772356 85.6710107,4.20169373 L85.6710107,27.7983063 C85.6682574,30.1022516 83.7604244,31.9972776 81.440838,32 L81.440838,32 Z M29.7426201,31.3436407 L81.440838,31.3436407 C83.3981064,31.3416021 85.0082002,29.7424474 85.0102027,27.7983063 L85.0102027,4.20169373 C85.0082002,2.25760236 83.3981064,0.658348225 81.440838,0.656359257 L29.7426201,0.656359257 L29.7426201,31.3436407 Z M12.8845055,10.5775775 L11.524092,12.4422345 C10.8420079,13.3758061 11.0535165,15.0291353 11.9846551,15.6966825 L14.5077404,17.5053997 C14.94077,17.8161759 14.9745613,18.1269521 14.7693103,18.4514024 L15.1360087,18.7223992 L16.4138212,16.9646492 C17.2035369,15.8781757 17.1347028,14.4001243 15.9632703,13.55357 L13.4176575,11.7112889 C13.1135356,11.4900163 13.0809958,11.1829695 13.2499524,10.8411157 L12.883254,10.5813068 L12.8845055,10.5775775 Z M15.0671745,2.34822469 L12.9483336,5.25833269 C11.9546184,6.6232616 12.3163107,8.95035351 13.6742212,9.94483723 L17.1572303,12.4845 C17.8630935,12.9991454 17.9557067,14.3106208 17.4413277,14.9818973 L17.7366889,15.2019268 L20.1396273,11.8455442 C21.2184465,10.3376583 21.1558699,8.11001476 19.4612978,6.88804289 L15.7354918,4.19920752 C15.2136036,3.82627612 14.9532853,3.18359102 15.3875663,2.57322663 L15.0671745,2.34822469 L15.0671745,2.34822469 Z M9.4840974,20.6007303 L12.2912801,20.6007303 L12.7918923,22.2913527 L17.3800027,22.2913527 L17.8806149,20.6007303 L20.6890491,20.6007303 L20.3210992,19.3576257 L9.85204734,19.3576257 L9.4840974,20.6007303 L9.4840974,20.6007303 Z M10.7994559,26.2568565 C11.2925588,25.9696993 11.5954292,25.5482868 11.5954292,24.9702432 C11.5954292,23.815399 10.6430146,23.3442623 9.60299279,23.3442623 L6.69944225,23.3442623 L6.69944225,29.4764976 L9.57796218,29.4764976 C10.806965,29.4764976 12.1085567,28.9432057 11.8982996,27.5384974 C11.7731465,26.7342087 11.4527547,26.5440137 10.8007074,26.2556134 L10.7994559,26.2568565 Z M8.00979459,24.5177531 L9.52164331,24.5177531 C10.4640457,24.5177531 10.497837,25.8254992 9.58046524,25.8254992 L8.00979459,25.8254992 L8.00979459,24.5177531 Z M9.69560604,28.317924 L8.00979459,28.317924 L8.00979459,26.9194313 L9.69560604,26.9194313 C10.9333696,26.9194313 10.8570263,28.317924 9.69560604,28.317924 Z M16.5640049,26.2568565 C17.0571079,25.9696993 17.3599782,25.5482868 17.3599782,24.9702432 C17.3599782,23.815399 16.4075636,23.3442623 15.3675418,23.3442623 L12.4639913,23.3442623 L12.4639913,29.4764976 L15.3425112,29.4764976 C16.5702625,29.4764976 17.8731057,28.9432057 17.6628486,27.5384974 C17.5376956,26.7342087 17.2173038,26.5440137 16.5652564,26.2556134 L16.5640049,26.2568565 Z M13.7793497,24.5152669 L15.2874439,24.5152669 C16.2298463,24.5152669 16.2636376,25.823013 15.3462658,25.823013 L13.7780982,25.823013 L13.7793497,24.5152669 Z M15.4614066,28.3166809 L13.7780982,28.3166809 L13.7780982,26.9194313 L15.4601551,26.9194313 C16.6966671,26.9194313 16.6215753,28.317924 15.4601551,28.317924 L15.4614066,28.3166809 Z M23.4261461,27.5397405 C23.3009931,26.7354518 22.9806013,26.5452568 22.3285539,26.2568565 C22.8216569,25.9696993 23.1245273,25.5482868 23.1245273,24.9702432 C23.1245273,23.815399 22.1721126,23.3442623 21.1320909,23.3442623 L18.2285403,23.3442623 L18.2285403,29.4764976 L21.1070603,29.4764976 C22.3348116,29.4764976 23.6376547,28.9432057 23.4273976,27.5384974 L23.4261461,27.5397405 Z M19.5476534,24.51651 L21.0507414,24.51651 C21.9931438,24.51651 22.0269351,25.8242561 21.1095633,25.8242561 L19.5426473,25.8242561 L19.5476534,24.51651 Z M21.2297102,28.317924 L19.5426473,28.317924 L19.5426473,26.9194313 L21.2247041,26.9194313 C22.4612162,26.9194313 22.3861243,28.317924 21.2247041,28.317924 L21.2297102,28.317924 Z" id="Fill-3" fill="#015A75"></path>
                <path d="M37.6059856,14.7158729 L37.3243912,13.9439049 L35.3557339,13.9439049 L35.0666304,14.7158729 L33.9515168,14.7158729 L35.7274384,10.156165 L36.9526867,10.156165 L38.7210992,14.7158729 L37.6059856,14.7158729 Z M36.3406883,11.1257867 L35.624813,13.0874058 L37.0565637,13.0874058 L36.3406883,11.1257867 Z M38.9764114,12.4385052 C38.9764114,11.0375262 40.0427153,10.0766063 41.4193987,10.0766063 C42.2206285,10.0546034 42.967667,10.4899386 43.3392464,11.1954005 L42.4994695,11.605625 C42.2908393,11.2062155 41.8784601,10.9503846 41.4256564,10.939321 C40.5933887,10.939321 39.9876479,11.5745474 39.9876479,12.4310465 C39.9876479,13.2875456 40.5933887,13.9227721 41.4256564,13.9227721 C41.880838,13.9176754 42.2973473,13.6622174 42.5057271,13.2601973 L43.3404979,13.6741512 C43.0100939,14.2410069 42.4318868,14.7929454 41.4206503,14.7929454 C40.0489729,14.7929454 38.9764114,13.8407272 38.9764114,12.4385052 Z M43.7535029,12.4385052 C43.7535029,11.0375262 44.8198068,10.0766063 46.1964903,10.0766063 C46.99772,10.0546034 47.7447585,10.4899386 48.1163379,11.1954005 L47.276561,11.605625 C47.0669297,11.2043509 46.6515467,10.948147 46.1964903,10.939321 C45.3642226,10.939321 44.7584818,11.5745474 44.7584818,12.4310465 C44.7584818,13.2875456 45.3642226,13.9227721 46.1964903,13.9227721 C46.6516719,13.9176754 47.0681812,13.6622174 47.276561,13.2601973 L48.1163379,13.6629633 C47.7859339,14.229819 47.2077268,14.7817574 46.1964903,14.7817574 C44.8210584,14.7929454 43.7535029,13.8407272 43.7535029,12.4385052 Z M51.3452864,14.7158729 L50.4441845,13.0998368 L49.7283091,13.0998368 L49.7283091,14.7158729 L48.7508638,14.7158729 L48.7508638,10.156165 L50.89849,10.156165 C51.8546592,10.156165 52.4403755,10.7777173 52.4403755,11.6255147 C52.4403755,12.4322896 51.9310026,12.8686194 51.4391511,12.9792557 L52.4716637,14.7196022 L51.3452864,14.7158729 Z M51.4378996,11.6255147 C51.4378996,11.2426385 51.1425384,11.0101779 50.7495579,11.0101779 L49.7245545,11.0101779 L49.7245545,12.2408515 L50.7495579,12.2408515 C51.146293,12.2408515 51.4378996,12.008391 51.4378996,11.6255147 Z M53.225085,14.7158729 L53.225085,10.156165 L56.4790641,10.156165 L56.4790641,11.0101779 L54.2025303,11.0101779 L54.2025303,11.973584 L56.4252483,11.973584 L56.4252483,12.8275969 L54.2025303,12.8275969 L54.2025303,13.8593738 L56.474058,13.8593738 L56.474058,14.7133867 L53.225085,14.7158729 Z M57.2863012,14.7158729 L57.2863012,10.156165 L59.0960141,10.156165 C60.5340226,10.156165 61.5327438,11.0648745 61.5327438,12.4397483 C61.5327438,13.814622 60.5315195,14.7158729 59.0960141,14.7158729 L57.2863012,14.7158729 Z M60.5402802,12.4397483 C60.5402802,11.6329734 60.0396681,11.011421 59.1022718,11.011421 L58.2700041,11.011421 L58.2700041,13.8606169 L59.1022718,13.8606169 C60.0046252,13.8606169 60.5352741,13.2117163 60.5352741,12.4385052 L60.5402802,12.4397483 Z M62.2774044,14.7158729 L62.2774044,10.156165 L63.2548497,10.156165 L63.2548497,14.7158729 L62.2774044,14.7158729 Z M65.2710652,14.7158729 L65.2710652,11.0101779 L63.928173,11.0101779 L63.928173,10.156165 L67.590151,10.156165 L67.590151,11.0101779 L66.2547681,11.0101779 L66.2547681,14.7158729 L65.2710652,14.7158729 Z M68.2647259,14.7158729 L68.2647259,10.156165 L71.5187049,10.156165 L71.5187049,11.0101779 L69.2421711,11.0101779 L69.2421711,11.973584 L71.4623861,11.973584 L71.4623861,12.8275969 L69.2421711,12.8275969 L69.2421711,13.8593738 L71.5136988,13.8593738 L71.5136988,14.7133867 L68.2647259,14.7158729 Z M72.325942,14.7158729 L72.325942,10.156165 L74.135655,10.156165 C75.5736634,10.156165 76.5723847,11.0648745 76.5723847,12.4397483 C76.5723847,13.814622 75.5711604,14.7158729 74.135655,14.7158729 L72.325942,14.7158729 Z M75.5799211,12.4397483 C75.5799211,11.6329734 75.0793089,11.011421 74.1419127,11.011421 L73.3096449,11.011421 L73.3096449,13.8606169 L74.1419127,13.8606169 C75.0455176,13.8606169 75.574915,13.2117163 75.574915,12.4385052 L75.5799211,12.4397483 Z M34.4408652,22.5474322 L34.4408652,17.9877243 L36.8563189,17.9877243 C37.7323902,17.9877243 38.177935,18.5409059 38.177935,19.1500272 C38.177935,19.7243415 37.8199973,20.1072178 37.3869678,20.1954782 C37.8750646,20.2700645 38.263039,20.7424443 38.263039,21.3142724 C38.263039,21.99798 37.8024759,22.544946 36.9276561,22.544946 L34.4408652,22.5474322 Z M37.1804652,19.3153601 C37.1804652,19.3148629 37.1804652,19.3144899 37.1804652,19.3139927 C37.1804652,19.0412555 36.9544389,18.8167508 36.6798531,18.8167508 C36.6677132,18.8167508 36.6556985,18.8172481 36.6435587,18.8181183 L35.4183104,18.8181183 L35.4183104,19.812602 L36.6435587,19.812602 C36.9727112,19.812602 37.1792137,19.6074897 37.1792137,19.3203325 L37.1804652,19.3153601 Z M37.2693239,21.1800171 C37.2693239,20.8928599 37.0628214,20.6467252 36.67735,20.6467252 L35.4183104,20.6467252 L35.4183104,21.7058504 L36.67735,21.7058504 C37.0453,21.7058504 37.2693239,21.5057105 37.2693239,21.1800171 Z M39.0477486,20.7287701 L39.0477486,17.9877243 L40.0489729,17.9877243 L40.0489729,20.6952063 C40.0489729,21.3304328 40.4244321,21.7680056 41.1290437,21.7680056 C41.8336553,21.7680056 42.2028568,21.3304328 42.2028568,20.6952063 L42.2028568,17.9877243 L43.2040811,17.9877243 L43.2040811,20.7225546 C43.2040811,21.8575091 42.5295062,22.6294771 41.1327983,22.6294771 C39.7360903,22.6294771 39.0477486,21.8500505 39.0477486,20.7287701 Z M43.8361039,21.9047471 L44.3655013,21.1663429 C44.7464671,21.5609665 45.2743627,21.783532 45.8247857,21.7816797 C46.3616923,21.7816797 46.6232621,21.5330588 46.6232621,21.2757362 C46.6232621,20.941341 46.1964903,20.8456219 45.6946266,20.7225546 C44.9437083,20.5522492 43.9812815,20.3496232 43.9812815,19.3079015 C43.9812815,18.5496076 44.6420895,17.9205967 45.7221603,17.9205967 C46.4518025,17.9205967 47.0575432,18.1393831 47.5118487,18.5558232 L46.967433,19.2681221 C46.6004843,18.9426773 46.1239015,18.7652863 45.6320501,18.7708803 C45.2127874,18.7708803 44.9787512,18.9561029 44.9787512,19.2283428 C44.9787512,19.5229586 45.3980139,19.6174345 45.8936199,19.7342864 C46.6445382,19.9120503 47.6144742,20.1382954 47.6144742,21.1700723 C47.6144742,22.0041955 47.0162427,22.6332064 45.7772276,22.6332064 C44.8961502,22.6245047 44.2628758,22.3348613 43.8361039,21.9047471 Z M48.324092,22.5474322 L48.324092,17.9877243 L49.3015372,17.9877243 L49.3015372,22.5474322 L48.324092,22.5474322 Z M53.4240784,22.5474322 L51.2351517,19.5739259 L51.2351517,22.5474322 L50.2577064,22.5474322 L50.2577064,17.9877243 L51.2589308,17.9877243 L53.3865324,20.846865 L53.3865324,17.9877243 L54.3639777,17.9877243 L54.3639777,22.5474322 L53.4240784,22.5474322 Z M55.3239015,22.5474322 L55.3239015,17.9877243 L58.5778806,17.9877243 L58.5778806,18.8417372 L56.3013468,18.8417372 L56.3013468,19.8051433 L58.5240648,19.8051433 L58.5240648,20.6591562 L56.3013468,20.6591562 L56.3013468,21.6909331 L58.5716229,21.6909331 L58.5716229,22.544946 L55.3239015,22.5474322 Z M59.0722351,21.9047471 L59.6016324,21.1663429 C59.9825983,21.5609665 60.5104938,21.783532 61.0609169,21.7816797 C61.5978234,21.7816797 61.8593933,21.5330588 61.8593933,21.2757362 C61.8593933,20.941341 61.4326214,20.8456219 60.9307577,20.7225546 C60.1798395,20.5522492 59.2174126,20.3496232 59.2174126,19.3079015 C59.2174126,18.5496076 59.8782207,17.9205967 60.9582914,17.9205967 C61.6879336,17.9205967 62.2936743,18.1393831 62.7479799,18.5558232 L62.2073187,19.2681221 C61.84037,18.9428016 61.3637872,18.7654106 60.8719358,18.7708803 C60.4526731,18.7708803 60.2186369,18.9561029 60.2186369,19.2283428 C60.2186369,19.5229586 60.6391511,19.6174345 61.1335056,19.7342864 C61.8844239,19.9120503 62.85436,20.1382954 62.85436,21.1700723 C62.85436,22.0041955 62.2561284,22.6332064 61.0171133,22.6332064 C60.1360359,22.6245047 59.5027615,22.3348613 59.0722351,21.9047471 Z M63.2548497,21.9047471 L63.784247,21.1663429 C64.1652129,21.5609665 64.6931084,21.783532 65.2435315,21.7816797 C65.780438,21.7816797 66.0420079,21.5330588 66.0420079,21.2757362 C66.0420079,20.941341 65.615236,20.8456219 65.1133723,20.7225546 C64.3624541,20.5522492 63.4000272,20.3496232 63.4000272,19.3079015 C63.4000272,18.5496076 64.0608353,17.9205967 65.140906,17.9205967 C65.8705482,17.9205967 66.4762889,18.1393831 66.9305945,18.5558232 L66.3861788,19.2681221 C66.01923,18.9428016 65.5426473,18.7654106 65.0507958,18.7708803 C64.6315331,18.7708803 64.3974969,18.9561029 64.3974969,19.2283428 C64.3974969,19.5229586 64.8180112,19.6174345 65.3123657,19.7342864 C66.0632839,19.9120503 67.03322,20.1382954 67.03322,21.1700723 C67.03322,22.0041955 66.4349884,22.6332064 65.1959733,22.6332064 C64.3136444,22.6245047 63.68037,22.3348613 63.2548497,21.9047471 Z" id="Fill-4" fill="#FFFFFF"></path>
                <path d="M86.5633519,29.3061922 L86.5633519,29.291275 C86.5633519,29.2887887 86.5633519,29.2863025 86.5633519,29.2838163 C86.5633519,27.8026198 87.7904775,26.5837806 89.281676,26.5837806 C90.7701211,26.5837806 91.9958699,27.7979831 92,29.2763577 L92,29.291275 C92,29.2937612 92,29.2962474 92,29.2987336 C92,30.7799301 90.7728744,31.9987693 89.281676,31.9987693 C87.7932309,31.9987693 86.567482,30.7845669 86.5633519,29.3061922 Z M91.752197,29.291275 L91.752197,29.2763577 C91.7480669,27.9330091 90.6340797,26.8299153 89.281676,26.8299153 C87.9263937,26.8299153 86.8111549,27.9376459 86.8111549,29.2838163 C86.8111549,29.2863025 86.8111549,29.2887887 86.8111549,29.291275 L86.8111549,29.3061922 C86.815285,30.6495408 87.9292722,31.7526346 89.281676,31.7526346 C90.6369582,31.7526346 91.752197,30.644904 91.752197,29.2987336 C91.752197,29.2962474 91.752197,29.2937612 91.752197,29.291275 Z M88.2153721,27.8293839 L89.4669025,27.8293839 C89.7697728,27.8153492 90.0665107,27.9198446 90.2929125,28.1202704 C90.439717,28.2603683 90.521442,28.4550758 90.518188,28.6572916 L90.518188,28.6722088 C90.518188,29.1197265 90.2178207,29.3882371 89.7973065,29.4851993 L90.6608625,30.5965348 L90.1502381,30.5965348 L89.3467555,29.5523269 L88.6333832,29.5523269 L88.6333832,30.5965348 L88.2203782,30.5965348 L88.2153721,27.8293839 Z M89.4243504,29.1868542 C89.8148279,29.1868542 90.0851585,29.0078471 90.0851585,28.6896123 L90.0851585,28.6746951 C90.0851585,28.3838086 89.8448646,28.1973429 89.446878,28.1973429 L88.6283771,28.1973429 L88.6283771,29.1818817 L89.4243504,29.1868542 Z M29.7426201,32 L4.23017277,32 C1.91061135,31.9972776 0.00274085158,30.1022516 0,27.7983063 L0,4.20169373 C0.00274085158,1.89772356 1.91061135,0.00273483024 4.23017277,0 L29.7426201,0 L29.7426201,32 L29.7426201,32 Z M4.23017277,0.656359257 C2.27285431,0.658348225 0.662860563,2.25760236 0.660808053,4.20169373 L0.660808053,27.7983063 C0.662860563,29.7424474 2.27285431,31.3416021 4.23017277,31.3436407 L29.081812,31.3436407 L29.081812,0.656359257 L4.23017277,0.656359257 Z" id="Fill-5" fill="#015A75"></path>
            </g>
        </g>
    </g>
</svg>